HIERARCHY
ROOT Hips
{
 OFFSET 0.000000 0.000000 0.000000
 CHANNELS 6 Xposition Yposition Zposition Yrotation Xrotation Zrotation
 JOINT Chest
 {
  OFFSET 0.000000 9.585900 0.002600
  CHANNELS 3 Yrotation Xrotation Zrotation
  JOINT Chest2
  {
   OFFSET 0.000000 9.601200 -0.005300
   CHANNELS 3 Yrotation Xrotation Zrotation
   JOINT Chest3
   {
    OFFSET 0.000000 9.561800 0.000000
    CHANNELS 3 Yrotation Xrotation Zrotation
    JOINT Chest4
    {
     OFFSET 0.000000 9.552100 0.000000
     CHANNELS 3 Yrotation Xrotation Zrotation
     JOINT Neck
     {
      OFFSET 0.000000 14.453000 0.000000
      CHANNELS 3 Yrotation Xrotation Zrotation
      JOINT Head
      {
       OFFSET 0.000000 8.936500 -0.011300
       CHANNELS 3 Yrotation Xrotation Zrotation
       End Site
       {
        OFFSET 0.000000 17.073600 -0.006000
       }
      }
     }
     JOINT RightCollar
     {
      OFFSET -2.921100 9.558500 0.000000
      CHANNELS 3 Yrotation Xrotation Zrotation
      JOINT RightShoulder
      {
       OFFSET -13.519700 0.000000 0.000000
       CHANNELS 3 Yrotation Xrotation Zrotation
       JOINT RightElbow
       {
        OFFSET 0.000000 -29.696600 0.000000
        CHANNELS 3 Yrotation Xrotation Zrotation
        JOINT RightWrist
        {
         OFFSET 0.000000 -24.004700 0.000000
         CHANNELS 3 Yrotation Xrotation Zrotation
         End Site
         {
          OFFSET 0.000000 -17.728500 0.000000
         }
        }
       }
      }
     }
     JOINT LeftCollar
     {
      OFFSET 2.921100 9.558500 0.000000
      CHANNELS 3 Yrotation Xrotation Zrotation
      JOINT LeftShoulder
      {
       OFFSET 13.519700 0.000000 0.000000
       CHANNELS 3 Yrotation Xrotation Zrotation
       JOINT LeftElbow
       {
        OFFSET 0.000000 -29.696600 0.000000
        CHANNELS 3 Yrotation Xrotation Zrotation
        JOINT LeftWrist
        {
         OFFSET 0.000000 -24.004700 0.000000
         CHANNELS 3 Yrotation Xrotation Zrotation
         End Site
         {
          OFFSET 0.000000 -17.728500 0.000000
         }
        }
       }
      }
     }
    }
   }
  }
 }
 JOINT RightHip
 {
  OFFSET -7.771700 -0.012900 -0.001300
  CHANNELS 3 Yrotation Xrotation Zrotation
  JOINT RightKnee
  {
   OFFSET 0.000000 -40.869800 0.001200
   CHANNELS 3 Yrotation Xrotation Zrotation
   JOINT RightAnkle
   {
    OFFSET 0.000000 -39.717900 0.002100
    CHANNELS 3 Yrotation Xrotation Zrotation
    JOINT RightToe
    {
     OFFSET 0.000000 -4.965400 11.033500
     CHANNELS 3 Yrotation Xrotation Zrotation
     End Site
     {
      OFFSET 0.000000 -1.423100 5.872300
     }
    }
   }
  }
 }
 JOINT LeftHip
 {
  OFFSET 7.771700 -0.012900 -0.001300
  CHANNELS 3 Yrotation Xrotation Zrotation
  JOINT LeftKnee
  {
   OFFSET 0.000000 -40.869800 0.001200
   CHANNELS 3 Yrotation Xrotation Zrotation
   JOINT LeftAnkle
   {
    OFFSET 0.000000 -39.717900 0.002100
    CHANNELS 3 Yrotation Xrotation Zrotation
    JOINT LeftToe
    {
     OFFSET 0.000000 -4.965400 11.033500
     CHANNELS 3 Yrotation Xrotation Zrotation
     End Site
     {
      OFFSET 0.000000 -1.423100 5.872300
     }
    }
   }
  }
 }
}
MOTION
Frames: 7
Frame Time: 0.008333
-101.449765 62.140988 18.847647 174.375410 -50.988472 0.095638 4.470973 26.621553 2.608362 0.587998 4.507783 0.418438 0.948331 7.128529 0.685618 3.266081 21.623321 2.546428 0.447269 15.496931 1.017790 0.575575 -7.023572 1.690048 4.633886 3.412133 4.330360 -1.123953 -10.735566 -14.520182 -88.330510 -53.388979 130.632735 2.864504 4.429872 8.012470 -8.651172 -0.023325 0.036188 -8.559995 -6.079055 14.632302 112.709130 -72.134619 -139.917856 2.569948 1.514400 -9.824993 2.934156 -16.173517 -5.716259 -2.484668 60.251709 -6.394930 1.265663 -5.259276 9.920443 0.304712 -0.664776 0.139270 -4.795362 -12.244199 1.860067 32.016420 74.638272 34.661257 2.014198 -11.363716 -6.576642 0.224934 0.833674 0.105595
-101.449561 62.141212 18.848096 174.380079 -51.000060 0.087982 4.468815 26.615963 2.612236 0.586286 4.487179 0.417783 0.949927 7.155590 0.687186 3.261265 21.611714 2.544230 0.485468 15.502542 1.010517 0.666887 -7.018295 1.661259 4.647419 3.418894 4.335133 -1.094939 -10.742550 -14.517407 -88.250082 -53.493149 130.512512 2.890906 4.446657 7.937661 -8.659132 -0.021545 0.025365 -8.637479 -6.120497 14.663427 112.189723 -72.384874 -139.252610 2.536135 1.534824 -9.763134 2.932073 -16.159723 -5.710739 -2.455787 60.250155 -6.365877 1.249498 -5.264573 9.915716 0.311463 -0.664965 0.140785 -4.798928 -12.234056 1.863470 32.011317 74.642298 34.655022 2.028739 -11.360258 -6.577850 0.233436 0.830530 0.105644
-101.445855 62.142109 18.848625 174.370009 -51.016750 0.069840 4.483389 26.594126 2.638925 0.586569 4.503404 0.417634 0.952374 7.165195 0.688791 3.251494 21.573083 2.536063 0.535559 15.532110 1.009059 0.768102 -7.011447 1.631530 4.663528 3.453051 4.346617 -1.062013 -10.748253 -14.512556 -88.192477 -53.598007 130.398830 2.925638 4.481845 7.856775 -8.664680 0.006486 0.013176 -8.663364 -6.125803 14.682478 111.804359 -72.646577 -138.750332 2.486893 1.562089 -9.678783 2.934509 -16.143410 -5.681308 -2.452909 60.250440 -6.361518 1.269197 -5.288098 9.923522 0.284767 -0.649538 0.130109 -4.799127 -12.213855 1.886644 32.010735 74.643189 34.651730 2.069657 -11.336673 -6.567357 0.207034 0.809641 0.089099
-101.452990 62.142899 18.848499 174.370988 -51.032655 0.106934 4.459962 26.592352 2.593894 0.586423 4.501444 0.417049 0.951701 7.166129 0.689302 3.253580 21.581430 2.536010 0.583372 15.525185 1.002934 0.882407 -7.004909 1.603008 4.687154 3.431050 4.355209 -1.047167 -10.739132 -14.506399 -88.134173 -53.723298 130.277292 2.961149 4.518349 7.764047 -8.697437 -0.021723 -0.007788 -8.715677 -6.160712 14.738808 111.332992 -72.950861 -138.092876 2.439427 1.578984 -9.576874 2.947149 -16.125019 -5.719046 -2.454105 60.250037 -6.361638 1.238501 -5.270855 9.911026 0.319362 -0.663983 0.145230 -4.795777 -12.197758 1.846416 32.010838 74.634468 34.645335 2.043035 -11.359573 -6.572480 0.242276 0.833789 0.100997
-101.453331 62.143874 18.849182 174.368488 -51.050300 0.104816 4.460963 26.587281 2.596091 0.586219 4.498702 0.416307 0.947575 7.135453 0.683625 3.261191 21.622310 2.544317 0.637883 15.516065 0.997147 1.005833 -6.993887 1.575915 4.702452 3.408052 4.358703 -1.007208 -10.748929 -14.480305 -88.059724 -53.883741 130.106658 2.998601 4.556218 7.662365 -8.761536 -0.068984 -0.049615 -8.730319 -6.173321 14.819281 110.981736 -73.293633 -137.530376 2.406400 1.583838 -9.460508 2.953645 -16.106651 -5.713421 -2.450149 60.248981 -6.356758 1.242876 -5.267668 9.913918 0.311798 -0.669339 0.143596 -4.795518 -12.179151 1.846023 32.021695 74.631107 34.654452 2.068531 -11.355388 -6.583896 0.200704 0.831945 0.108253
-101.457047 62.143093 18.851244 174.368027 -51.054870 0.119333 4.451139 26.567492 2.576047 0.587032 4.503914 0.416906 0.945465 7.120894 0.680315 3.263765 21.623471 2.544881 0.761261 15.492740 0.984798 1.074155 -6.947292 1.577986 4.715688 3.401818 4.359401 -0.984442 -10.749612 -14.454143 -87.990017 -54.052333 129.948717 3.039876 4.594276 7.547868 -8.812298 -0.077937 -0.079165 -8.734215 -6.189352 14.888748 110.820898 -73.666018 -137.144577 2.390871 1.578231 -9.329753 2.963176 -16.100606 -5.724192 -2.431124 60.246141 -6.346346 1.228582 -5.267317 9.921652 0.309540 -0.667384 0.142539 -4.791605 -12.175239 1.830830 32.018860 74.624685 34.654475 2.036150 -11.355869 -6.571692 0.213458 0.833197 0.099389
-101.459855 62.142229 18.853685 174.369716 -51.059432 0.125488 4.443003 26.551106 2.563362 0.589121 4.518428 0.419219 0.939899 7.086595 0.673466 3.256453 21.586288 2.529531 0.809913 15.555391 1.000983 1.243409 -6.934307 1.541886 4.740967 3.437363 4.370888 -0.978695 -10.738411 -14.428944 -87.939070 -54.233554 129.814818 3.085172 4.634561 7.402469 -8.847473 -0.035959 -0.100283 -8.735924 -6.209456 14.963946 110.758437 -74.059610 -136.834885 2.390755 1.556355 -9.185912 2.969388 -16.097078 -5.727265 -2.431384 60.246558 -6.350149 1.217309 -5.264267 9.923010 0.313723 -0.668697 0.144943 -4.790709 -12.171652 1.821890 32.011533 74.620952 34.647923 2.029875 -11.355895 -6.572178 0.251080 0.837049 0.099782
